<?xml version="1.0" encoding="utf-8"?>
<!-- Generator: Adobe Illustrator 25.2.1, SVG Export Plug-In . SVG Version: 6.00 Build 0)  -->
<svg version="1.1" id="Livello_1" xmlns="http://www.w3.org/2000/svg" xmlns:xlink="http://www.w3.org/1999/xlink" x="0px" y="0px"
	 viewBox="0 0 175 175" style="enable-background:new 0 0 175 175;" xml:space="preserve">
<style type="text/css">
	.st0{fill:#333333;}
</style>
<g>
	<path class="st0" d="M68.79,157.08h-2.32v-6.96c0-1.28-1.04-2.32-2.32-2.32h-2.32c-1.28,0-2.32-1.04-2.32-2.32s1.04-2.32,2.32-2.32
		c1.28,0,2.32-1.04,2.32-2.32c0-1.28-1.04-2.32-2.32-2.32h-0.05L59.57,36.48c1.26-0.03,2.27-1.05,2.27-2.32
		c0-1.28-1.04-2.32-2.32-2.32c-1.28,0-2.32-1.04-2.32-2.32s1.04-2.32,2.32-2.32c1.28,0,2.32-1.04,2.32-2.32v-6.96h2.32
		c1.28,0,2.32-1.04,2.32-2.32s-1.04-2.32-2.32-2.32H31.68c-1.28,0-2.32,1.04-2.32,2.32s1.04,2.32,2.32,2.32H34v6.96
		c0,1.28,1.04,2.32,2.32,2.32c1.28,0,2.32,1.04,2.32,2.32s-1.04,2.32-2.32,2.32c-1.28,0-2.32,1.04-2.32,2.32
		c0,1.26,1.01,2.29,2.27,2.32l-2.22,102.05H34c-1.28,0-2.32,1.04-2.32,2.32c0,1.28,1.04,2.32,2.32,2.32c1.28,0,2.32,1.04,2.32,2.32
		s-1.04,2.32-2.32,2.32h-2.32c-1.28,0-2.32,1.04-2.32,2.32v6.96h-2.32c-1.28,0-2.32,1.04-2.32,2.32s1.04,2.32,2.32,2.32h41.75
		c1.28,0,2.32-1.04,2.32-2.32S70.07,157.08,68.79,157.08z M57.2,17.92v4.64H38.64v-4.64H57.2z M40.56,143.16h5.04
		c1.28,0,2.32-1.04,2.32-2.32c0-1.28-1.04-2.32-2.32-2.32h-6.91l2.22-102.04h7.01c1.28,0,2.32-1.04,2.32-2.32s-1.04-2.32-2.32-2.32
		h-5.04c0.26-0.73,0.4-1.51,0.4-2.32c0-0.81-0.14-1.59-0.4-2.32h10.07c-0.26,0.73-0.4,1.51-0.4,2.32c0,2.06,0.9,3.92,2.33,5.19
		l2.26,103.81h-2.27c-1.28,0-2.32,1.04-2.32,2.32c0,1.28,1.04,2.32,2.32,2.32h0.4c-0.26,0.73-0.4,1.51-0.4,2.32
		c0,0.81,0.14,1.59,0.4,2.32H40.56c0.26-0.73,0.4-1.51,0.4-2.32C40.96,144.67,40.82,143.89,40.56,143.16z M34,152.44h27.83v4.64H34
		V152.44z"/>
	<path class="st0" d="M147.95,157.08h-2.32v-6.96c0-1.28-1.04-2.32-2.32-2.32H141c-1.28,0-2.32-1.04-2.32-2.32s1.04-2.32,2.32-2.32
		c1.28,0,2.32-1.04,2.32-2.32c0-1.28-1.04-2.32-2.32-2.32h-0.05l-2.22-102.05c1.26-0.03,2.27-1.05,2.27-2.32
		c0-1.28-1.04-2.32-2.32-2.32c-1.28,0-2.32-1.04-2.32-2.32s1.04-2.32,2.32-2.32c1.28,0,2.32-1.04,2.32-2.32v-6.96h2.32
		c1.28,0,2.32-1.04,2.32-2.32s-1.04-2.32-2.32-2.32h-32.47c-1.28,0-2.32,1.04-2.32,2.32s1.04,2.32,2.32,2.32h2.32v6.96
		c0,1.28,1.04,2.32,2.32,2.32c1.28,0,2.32,1.04,2.32,2.32s-1.04,2.32-2.32,2.32c-1.28,0-2.32,1.04-2.32,2.32
		c0,1.26,1.01,2.29,2.27,2.32l-2.22,102.05h-0.05c-1.28,0-2.32,1.04-2.32,2.32c0,1.28,1.04,2.32,2.32,2.32
		c1.28,0,2.32,1.04,2.32,2.32s-1.04,2.32-2.32,2.32h-2.32c-1.28,0-2.32,1.04-2.32,2.32v6.96h-2.32c-1.28,0-2.32,1.04-2.32,2.32
		s1.04,2.32,2.32,2.32h41.75c1.28,0,2.32-1.04,2.32-2.32S149.23,157.08,147.95,157.08z M136.36,17.92v4.64H117.8v-4.64H136.36z
		 M119.72,143.16h5.04c1.28,0,2.32-1.04,2.32-2.32c0-1.28-1.04-2.32-2.32-2.32h-6.91l2.22-102.04h7.01c1.28,0,2.32-1.04,2.32-2.32
		s-1.04-2.32-2.32-2.32h-5.04c0.26-0.73,0.4-1.51,0.4-2.32c0-0.81-0.14-1.59-0.4-2.32h10.07c-0.26,0.73-0.4,1.51-0.4,2.32
		c0,2.06,0.9,3.92,2.33,5.19l2.26,103.81h-2.27c-1.28,0-2.32,1.04-2.32,2.32c0,1.28,1.04,2.32,2.32,2.32h0.4
		c-0.26,0.73-0.4,1.51-0.4,2.32c0,0.81,0.14,1.59,0.4,2.32h-14.71c0.26-0.73,0.4-1.51,0.4-2.32
		C120.12,144.67,119.98,143.89,119.72,143.16z M113.17,152.44H141v4.64h-27.83V152.44z"/>
</g>
</svg>
