<?xml version="1.0" encoding="utf-8"?>
<!-- Generator: Adobe Illustrator 25.2.1, SVG Export Plug-In . SVG Version: 6.00 Build 0)  -->
<svg version="1.1" id="Livello_1" xmlns="http://www.w3.org/2000/svg" xmlns:xlink="http://www.w3.org/1999/xlink" x="0px" y="0px"
	 viewBox="0 0 520 200" style="enable-background:new 0 0 520 200;" xml:space="preserve">
<style type="text/css">
	.st0{fill:#333333;}
</style>
<g>
	<path class="st0" d="M64.7,154.68h-2.25v-6.76c0-1.24-1.01-2.25-2.25-2.25h-2.25c-1.24,0-2.25-1.01-2.25-2.25
		c0-1.24,1.01-2.25,2.25-2.25c1.24,0,2.25-1.01,2.25-2.25c0-1.24-1.01-2.25-2.25-2.25H57.9l-2.15-99.13c1.22-0.03,2.2-1.02,2.2-2.25
		c0-1.24-1.01-2.25-2.25-2.25c-1.24,0-2.25-1.01-2.25-2.25c0-1.24,1.01-2.25,2.25-2.25c1.24,0,2.25-1.01,2.25-2.25v-6.76h2.25
		c1.24,0,2.25-1.01,2.25-2.25c0-1.24-1.01-2.25-2.25-2.25H28.66c-1.24,0-2.25,1.01-2.25,2.25c0,1.24,1.01,2.25,2.25,2.25h2.25v6.76
		c0,1.24,1.01,2.25,2.25,2.25c1.24,0,2.25,1.01,2.25,2.25c0,1.24-1.01,2.25-2.25,2.25c-1.24,0-2.25,1.01-2.25,2.25
		c0,1.23,0.98,2.22,2.2,2.25l-2.15,99.13h-0.05c-1.24,0-2.25,1.01-2.25,2.25c0,1.24,1.01,2.25,2.25,2.25c1.24,0,2.25,1.01,2.25,2.25
		c0,1.24-1.01,2.25-2.25,2.25h-2.25c-1.24,0-2.25,1.01-2.25,2.25v6.76h-2.25c-1.24,0-2.25,1.01-2.25,2.25
		c0,1.24,1.01,2.25,2.25,2.25H64.7c1.24,0,2.25-1.01,2.25-2.25C66.96,155.69,65.95,154.68,64.7,154.68z M53.44,19.51v4.51H35.42
		v-4.51H53.44z M37.28,141.16h4.89c1.24,0,2.25-1.01,2.25-2.25c0-1.24-1.01-2.25-2.25-2.25h-6.71l2.15-99.13h6.81
		c1.24,0,2.25-1.01,2.25-2.25s-1.01-2.25-2.25-2.25h-4.89c0.25-0.71,0.39-1.46,0.39-2.25s-0.14-1.55-0.39-2.25h9.79
		c-0.25,0.71-0.39,1.46-0.39,2.25c0,2,0.88,3.8,2.26,5.04l2.19,100.85h-2.2c-1.24,0-2.25,1.01-2.25,2.25c0,1.24,1.01,2.25,2.25,2.25
		h0.39c-0.25,0.71-0.39,1.46-0.39,2.25c0,0.79,0.14,1.55,0.39,2.25H37.28c0.25-0.71,0.39-1.46,0.39-2.25
		C37.67,142.63,37.53,141.87,37.28,141.16z M30.91,150.18h27.04v4.51H30.91V150.18z"/>
	<path class="st0" d="M141.6,154.68h-2.25v-6.76c0-1.24-1.01-2.25-2.25-2.25h-2.25c-1.24,0-2.25-1.01-2.25-2.25
		c0-1.24,1.01-2.25,2.25-2.25c1.24,0,2.25-1.01,2.25-2.25c0-1.24-1.01-2.25-2.25-2.25h-0.05l-2.15-99.13
		c1.22-0.03,2.2-1.02,2.2-2.25c0-1.24-1.01-2.25-2.25-2.25c-1.24,0-2.25-1.01-2.25-2.25c0-1.24,1.01-2.25,2.25-2.25
		c1.24,0,2.25-1.01,2.25-2.25v-6.76h2.25c1.24,0,2.25-1.01,2.25-2.25c0-1.24-1.01-2.25-2.25-2.25h-31.54
		c-1.24,0-2.25,1.01-2.25,2.25c0,1.24,1.01,2.25,2.25,2.25h2.25v6.76c0,1.24,1.01,2.25,2.25,2.25c1.24,0,2.25,1.01,2.25,2.25
		c0,1.24-1.01,2.25-2.25,2.25c-1.24,0-2.25,1.01-2.25,2.25c0,1.23,0.98,2.22,2.2,2.25l-2.15,99.13h-0.05
		c-1.24,0-2.25,1.01-2.25,2.25c0,1.24,1.01,2.25,2.25,2.25c1.24,0,2.25,1.01,2.25,2.25c0,1.24-1.01,2.25-2.25,2.25h-2.25
		c-1.24,0-2.25,1.01-2.25,2.25v6.76h-2.25c-1.24,0-2.25,1.01-2.25,2.25c0,1.24,1.01,2.25,2.25,2.25h40.55
		c1.24,0,2.25-1.01,2.25-2.25C143.86,155.69,142.85,154.68,141.6,154.68z M130.34,19.51v4.51h-18.02v-4.51H130.34z M114.18,141.16
		h4.89c1.24,0,2.25-1.01,2.25-2.25c0-1.24-1.01-2.25-2.25-2.25h-6.71l2.15-99.13h6.81c1.24,0,2.25-1.01,2.25-2.25
		s-1.01-2.25-2.25-2.25h-4.89c0.25-0.71,0.39-1.46,0.39-2.25s-0.14-1.55-0.39-2.25h9.79c-0.25,0.71-0.39,1.46-0.39,2.25
		c0,2,0.88,3.8,2.26,5.04l2.19,100.85h-2.2c-1.24,0-2.25,1.01-2.25,2.25c0,1.24,1.01,2.25,2.25,2.25h0.39
		c-0.25,0.71-0.39,1.46-0.39,2.25c0,0.79,0.14,1.55,0.39,2.25h-14.29c0.25-0.71,0.39-1.46,0.39-2.25
		C114.57,142.63,114.43,141.87,114.18,141.16z M107.81,150.18h27.04v4.51h-27.04V150.18z"/>
	<path class="st0" d="M418.55,154.68h-2.25v-6.76c0-1.24-1.01-2.25-2.25-2.25h-2.25c-1.24,0-2.25-1.01-2.25-2.25
		c0-1.24,1.01-2.25,2.25-2.25c1.24,0,2.25-1.01,2.25-2.25c0-1.24-1.01-2.25-2.25-2.25h-0.05l-2.15-99.13
		c1.22-0.03,2.2-1.02,2.2-2.25c0-1.24-1.01-2.25-2.25-2.25c-1.24,0-2.25-1.01-2.25-2.25c0-1.24,1.01-2.25,2.25-2.25
		c1.24,0,2.25-1.01,2.25-2.25v-6.76h2.25c1.24,0,2.25-1.01,2.25-2.25c0-1.24-1.01-2.25-2.25-2.25h-31.54
		c-1.24,0-2.25,1.01-2.25,2.25c0,1.24,1.01,2.25,2.25,2.25h2.25v6.76c0,1.24,1.01,2.25,2.25,2.25c1.24,0,2.25,1.01,2.25,2.25
		c0,1.24-1.01,2.25-2.25,2.25c-1.24,0-2.25,1.01-2.25,2.25c0,1.23,0.98,2.22,2.2,2.25l-2.15,99.13h-0.05
		c-1.24,0-2.25,1.01-2.25,2.25c0,1.24,1.01,2.25,2.25,2.25c1.24,0,2.25,1.01,2.25,2.25c0,1.24-1.01,2.25-2.25,2.25h-2.25
		c-1.24,0-2.25,1.01-2.25,2.25v6.76H378c-1.24,0-2.25,1.01-2.25,2.25c0,1.24,1.01,2.25,2.25,2.25h40.55c1.24,0,2.25-1.01,2.25-2.25
		C420.81,155.69,419.8,154.68,418.55,154.68z M407.29,19.51v4.51h-18.02v-4.51H407.29z M391.13,141.16h4.89
		c1.24,0,2.25-1.01,2.25-2.25c0-1.24-1.01-2.25-2.25-2.25h-6.71l2.15-99.13h6.81c1.24,0,2.25-1.01,2.25-2.25s-1.01-2.25-2.25-2.25
		h-4.89c0.25-0.71,0.39-1.46,0.39-2.25s-0.14-1.55-0.39-2.25h9.79c-0.25,0.71-0.39,1.46-0.39,2.25c0,2,0.88,3.8,2.26,5.04
		l2.19,100.85h-2.2c-1.24,0-2.25,1.01-2.25,2.25c0,1.24,1.01,2.25,2.25,2.25h0.39c-0.25,0.71-0.39,1.46-0.39,2.25
		c0,0.79,0.14,1.55,0.39,2.25h-14.29c0.25-0.71,0.39-1.46,0.39-2.25C391.52,142.63,391.38,141.87,391.13,141.16z M384.76,150.18
		h27.04v4.51h-27.04V150.18z"/>
	<g>
		<path class="st0" d="M161.15,157.39c1.3,0.18,2.41,0.18,3.7,0.18c4.26,0,7.78-2.78,7.78-14.07V74.8c0-9.44-4.44-10.19-11.11-10.19
			v-2.04c7.22,0,11.85,1.3,15.93,1.3c3.15,0,13.89-1.3,28.33-1.3c10,0,25.74,0,38.15,13.7c7.96,9.07,12.78,21.3,12.78,34.07
			c0,17.78-10.93,49.26-50,49.26c-11.48,0-18.7-0.93-25.93-0.93c-3.7,0-12.78,0.93-15.18,0.93c-2.04,0-3.15-0.19-4.44-0.19V157.39z
			 M183,147.21c0,5.56,0.93,9.44,15.92,9.44c9.63,0,18.33-0.56,25.18-3.7c18.89-8.7,21.3-28.7,21.3-39.63
			c0-12.41-4.44-26.85-11.3-34.44c-10-11.3-18.7-12.22-31.48-12.22h-16.85c-1.67,0-2.78,1.67-2.78,3.15V147.21z"/>
		<path class="st0" d="M332.25,62.95c0.74,2.04,4.63,10.55,5.37,12.41c1.3,3.15,1.3,4.26,1.3,7.04h-1.48
			c-0.18-12.96-20.18-16.11-32.59-16.11c-2.04,0-6.67,0.19-6.67,3.52v37.22h16.3c8.89,0,10.74-4.81,10.74-7.04
			c0-1.48-0.56-3.15-0.93-4.81l1.11-0.74c1.3,2.04,1.3,2.59,1.67,7.78c0.56,7.59,0.56,8.52,1.85,12.22
			c1.11,3.15,1.11,5.93,1.11,8.33h-1.3c-0.74-12.59-6.3-12.59-30.55-12.22v39.63c0,4.26,3.52,6.3,7.04,6.3h9.44
			c0.37,0,9.63,0,18.89-4.44c10.18-5,10.37-6.48,10.93-10.55h1.85c-0.56,3.52-0.93,5.19-3.15,8.52c-1.11,1.67-6.48,8.7-7.22,10.37
			c-7.59-0.93-33.7-1.3-42.59-1.3c-2.22,0-4.44,0.19-6.67,0.19c-2.41,0.18-4.63,0.37-6.85,0.37c-1.3,0-2.78,0-4.26-0.37v-2.22
			c1.11,0.18,2.41,0.37,3.52,0.37c1.48,0,3.89-0.37,5.56-1.48c2.41-2.41,3.33-5.93,3.33-11.67v-68.7c0-5.37-0.37-10.74-7.78-10.74
			c-2.04,0-2.22,0-3.89,0.19v-2.04c1.67-0.37,2.96-0.56,5.37-0.56c2.96,0,16.11,0.74,18.89,0.74h22.22L332.25,62.95z"/>
	</g>
	<g>
		<g>
			<path class="st0" d="M480.98,106.23c11.3,9.26,16.48,18.15,16.48,28.7c0,8.15-4.81,24.44-29.63,24.44
				c-11.11,0-16.3-5.56-24.44-5.56c0-5-2.59-12.41-2.59-17.41c0-1.67,0-4.26,0.74-6.11h1.67c-0.19,1.67-0.37,2.96-0.37,4.63
				c0,2.96,0.37,6.3,1.3,8.15c0.19,0.37,4.44,5.37,8.7,8.33c2.41,1.85,7.04,5.18,15.74,5.18c11.11,0,20.37-7.59,20.37-19.07
				c0-11.85-10.18-20.56-16.67-26.11l-7.59-6.48c-10.93-9.26-16.85-14.44-16.85-24.63c0-8.7,7.41-19.07,21.11-19.07
				c5.74,0,8.7,1.11,19.44,5.19c1.11,3.52,1.3,5.19,1.3,8.7c0,1.67,0,4.63-1.3,8.89h-1.85c0.18-1.3,0.93-5.56,0.93-7.96
				c0-0.74-6.3-11.85-17.78-11.85c-7.78,0-14.07,5-14.07,12.22c0,3.89,0.93,9.63,17.96,23.7L480.98,106.23z"/>
		</g>
	</g>
	<path class="st0" d="M510.04,185H9.96v-12.17h1.92c2.12,0,3.84-1.72,3.84-3.85v-1.92h488.55v1.92c0,2.12,1.73,3.85,3.85,3.85h1.92
		V185z M13.8,181.15H506.2v-4.72c-2.7-0.7-4.83-2.83-5.52-5.52H19.33c-0.7,2.7-2.83,4.83-5.52,5.52V181.15z"/>
</g>
</svg>
